<?xml version="1.0" encoding="UTF-8"?>
<svg xmlns="http://www.w3.org/2000/svg" xmlns:xlink="http://www.w3.org/1999/xlink" width="375pt" height="374.999991pt" viewBox="0 0 375 374.999991" version="1.2">
<g id="surface1">
<path style=" stroke:none;fill-rule:nonzero;fill:rgb(0%,0%,0%);fill-opacity:1;" d="M 280.367188 237.515625 L 94.621094 237.515625 C 83.804688 237.515625 75 228.75 75 217.945312 L 75 154.277344 C 75 143.492188 83.792969 134.714844 94.621094 134.714844 L 280.367188 134.714844 C 291.195312 134.714844 300 143.480469 300 154.277344 L 300 217.945312 C 300 228.75 291.207031 237.515625 280.367188 237.515625 Z M 94.632812 144.0625 C 88.988281 144.0625 84.375 148.660156 84.375 154.285156 L 84.375 217.964844 C 84.375 223.589844 88.976562 228.1875 94.632812 228.1875 L 280.386719 228.1875 C 286.03125 228.1875 290.644531 223.589844 290.644531 217.964844 L 290.644531 154.285156 C 290.644531 148.648438 286.03125 144.0625 280.386719 144.0625 Z M 94.632812 144.0625 "/>
<path style=" stroke:none;fill-rule:nonzero;fill:rgb(0%,0%,0%);fill-opacity:1;" d="M 248.839844 218.824219 C 230.738281 218.824219 216.027344 204.160156 216.027344 186.117188 C 216.027344 168.070312 230.738281 153.40625 248.839844 153.40625 C 266.933594 153.40625 281.652344 168.078125 281.652344 186.117188 C 281.652344 204.152344 266.925781 218.824219 248.839844 218.824219 Z M 248.839844 162.753906 C 235.914062 162.753906 225.402344 173.238281 225.402344 186.117188 C 225.402344 198.992188 235.914062 209.480469 248.839844 209.480469 C 261.75 209.480469 272.277344 198.992188 272.277344 186.117188 C 272.277344 173.238281 261.75 162.753906 248.839844 162.753906 Z M 248.839844 162.753906 "/>
<path style=" stroke:none;fill-rule:nonzero;fill:rgb(0%,0%,0%);fill-opacity:1;" d="M 258.214844 190.789062 C 255.628906 190.789062 253.527344 188.695312 253.527344 186.117188 C 253.527344 183.535156 251.417969 181.441406 248.839844 181.441406 C 246.253906 181.441406 244.152344 179.351562 244.152344 176.769531 C 244.152344 174.191406 246.253906 172.097656 248.839844 172.097656 C 256.585938 172.097656 262.902344 178.386719 262.902344 186.117188 C 262.902344 188.695312 260.792969 190.789062 258.214844 190.789062 Z M 258.214844 190.789062 "/>
<path style=" stroke:none;fill-rule:nonzero;fill:rgb(0%,0%,0%);fill-opacity:1;" d="M 107.8125 214.152344 C 105.234375 214.152344 103.125 212.058594 103.125 209.480469 L 103.125 162.753906 C 103.125 160.183594 105.234375 158.078125 107.8125 158.078125 C 110.390625 158.078125 112.5 160.183594 112.5 162.753906 L 112.5 209.480469 C 112.5 212.058594 110.398438 214.152344 107.8125 214.152344 Z M 107.8125 214.152344 "/>
<path style=" stroke:none;fill-rule:nonzero;fill:rgb(0%,0%,0%);fill-opacity:1;" d="M 126.5625 214.152344 C 123.984375 214.152344 121.875 212.058594 121.875 209.480469 L 121.875 162.753906 C 121.875 160.183594 123.984375 158.078125 126.5625 158.078125 C 129.140625 158.078125 131.25 160.183594 131.25 162.753906 L 131.25 209.480469 C 131.25 212.058594 129.148438 214.152344 126.5625 214.152344 Z M 126.5625 214.152344 "/>
<path style=" stroke:none;fill-rule:nonzero;fill:rgb(0%,0%,0%);fill-opacity:1;" d="M 145.3125 214.152344 C 142.734375 214.152344 140.625 212.058594 140.625 209.480469 L 140.625 162.753906 C 140.625 160.183594 142.734375 158.078125 145.3125 158.078125 C 147.890625 158.078125 150 160.183594 150 162.753906 L 150 209.480469 C 150 212.058594 147.898438 214.152344 145.3125 214.152344 Z M 145.3125 214.152344 "/>
<path style=" stroke:none;fill-rule:nonzero;fill:rgb(0%,0%,0%);fill-opacity:1;" d="M 126.5625 256.207031 L 98.4375 256.207031 C 95.859375 256.207031 93.75 254.113281 93.75 251.535156 L 93.75 232.84375 C 93.75 230.273438 95.851562 228.171875 98.4375 228.171875 L 126.5625 228.171875 C 129.148438 228.171875 131.25 230.273438 131.25 232.84375 L 131.25 251.535156 C 131.25 254.113281 129.148438 256.207031 126.5625 256.207031 Z M 103.125 246.859375 L 121.875 246.859375 L 121.875 237.515625 L 103.125 237.515625 Z M 103.125 246.859375 "/>
<path style=" stroke:none;fill-rule:nonzero;fill:rgb(0%,0%,0%);fill-opacity:1;" d="M 276.5625 256.207031 L 248.4375 256.207031 C 245.859375 256.207031 243.75 254.113281 243.75 251.535156 L 243.75 232.84375 C 243.75 230.273438 245.859375 228.171875 248.4375 228.171875 L 276.5625 228.171875 C 279.148438 228.171875 281.25 230.273438 281.25 232.84375 L 281.25 251.535156 C 281.25 254.113281 279.148438 256.207031 276.5625 256.207031 Z M 253.125 246.859375 L 271.875 246.859375 L 271.875 237.515625 L 253.125 237.515625 Z M 253.125 246.859375 "/>
</g>
</svg>
