<?xml version="1.0" encoding="UTF-8"?>
<svg xmlns="http://www.w3.org/2000/svg" xmlns:xlink="http://www.w3.org/1999/xlink" width="375pt" height="374.999991pt" viewBox="0 0 375 374.999991" version="1.2">
<defs>
<clipPath id="clip1">
  <path d="M 112.5 112.5 L 262.5 112.5 L 262.5 262.5 L 112.5 262.5 Z M 112.5 112.5 "/>
</clipPath>
</defs>
<g id="surface1">
<g clip-path="url(#clip1)" clip-rule="nonzero">
<path style=" stroke:none;fill-rule:nonzero;fill:rgb(0%,0%,0%);fill-opacity:1;" d="M 161.179688 262.5 L 149.011719 262.5 C 146.851562 262.492188 142.988281 259.992188 142.878906 259.890625 C 123.46875 240.8125 112.5 214.71875 112.5 187.480469 C 112.5 160.171875 123.53125 133.996094 143.050781 114.90625 C 143.058594 114.898438 146.851562 112.5 149.011719 112.5 L 161.179688 112.5 C 165.636719 112.5 170.917969 115.757812 172.914062 119.761719 L 173.765625 121.472656 C 175.753906 125.453125 175.578125 131.890625 173.375 135.753906 L 165.199219 150.054688 C 162.980469 153.929688 157.527344 157.160156 153.066406 157.160156 L 144.945312 157.160156 C 134.160156 175.910156 134.160156 199.082031 144.9375 217.839844 L 153.066406 217.839844 C 157.527344 217.839844 162.980469 221.074219 165.199219 224.945312 L 173.363281 239.246094 C 175.570312 243.109375 175.753906 249.527344 173.765625 253.539062 L 172.914062 255.25 C 170.910156 259.230469 165.636719 262.5 161.179688 262.5 Z M 262.5 150 L 262.5 225 C 262.5 235.355469 254.105469 243.75 243.75 243.75 L 184.1875 243.75 C 183.820312 240.464844 183.023438 237.257812 181.503906 234.59375 L 173.335938 220.292969 C 169.410156 213.4375 160.894531 208.464844 153.066406 208.464844 L 150.675781 208.464844 C 144.761719 195.152344 144.761719 179.835938 150.675781 166.535156 L 153.066406 166.535156 C 160.894531 166.535156 169.410156 161.5625 173.335938 154.707031 L 181.511719 140.40625 C 183.03125 137.742188 183.828125 134.527344 184.195312 131.25 L 243.75 131.25 C 254.105469 131.25 262.5 139.644531 262.5 150 Z M 208.59375 220.3125 C 208.59375 216.429688 205.445312 213.28125 201.5625 213.28125 C 197.679688 213.28125 194.53125 216.429688 194.53125 220.3125 C 194.53125 224.195312 197.679688 227.34375 201.5625 227.34375 C 205.445312 227.34375 208.59375 224.195312 208.59375 220.3125 Z M 208.59375 201.5625 C 208.59375 197.679688 205.445312 194.53125 201.5625 194.53125 C 197.679688 194.53125 194.53125 197.679688 194.53125 201.5625 C 194.53125 205.445312 197.679688 208.59375 201.5625 208.59375 C 205.445312 208.59375 208.59375 205.445312 208.59375 201.5625 Z M 208.59375 182.8125 C 208.59375 178.929688 205.445312 175.78125 201.5625 175.78125 C 197.679688 175.78125 194.53125 178.929688 194.53125 182.8125 C 194.53125 186.695312 197.679688 189.84375 201.5625 189.84375 C 205.445312 189.84375 208.59375 186.695312 208.59375 182.8125 Z M 227.34375 220.3125 C 227.34375 216.429688 224.195312 213.28125 220.3125 213.28125 C 216.429688 213.28125 213.28125 216.429688 213.28125 220.3125 C 213.28125 224.195312 216.429688 227.34375 220.3125 227.34375 C 224.195312 227.34375 227.34375 224.195312 227.34375 220.3125 Z M 227.34375 201.5625 C 227.34375 197.679688 224.195312 194.53125 220.3125 194.53125 C 216.429688 194.53125 213.28125 197.679688 213.28125 201.5625 C 213.28125 205.445312 216.429688 208.59375 220.3125 208.59375 C 224.195312 208.59375 227.34375 205.445312 227.34375 201.5625 Z M 227.34375 182.8125 C 227.34375 178.929688 224.195312 175.78125 220.3125 175.78125 C 216.429688 175.78125 213.28125 178.929688 213.28125 182.8125 C 213.28125 186.695312 216.429688 189.84375 220.3125 189.84375 C 224.195312 189.84375 227.34375 186.695312 227.34375 182.8125 Z M 246.09375 220.3125 C 246.09375 216.429688 242.945312 213.28125 239.0625 213.28125 C 235.179688 213.28125 232.03125 216.429688 232.03125 220.3125 C 232.03125 224.195312 235.179688 227.34375 239.0625 227.34375 C 242.945312 227.34375 246.09375 224.195312 246.09375 220.3125 Z M 246.09375 201.5625 C 246.09375 197.679688 242.945312 194.53125 239.0625 194.53125 C 235.179688 194.53125 232.03125 197.679688 232.03125 201.5625 C 232.03125 205.445312 235.179688 208.59375 239.0625 208.59375 C 242.945312 208.59375 246.09375 205.445312 246.09375 201.5625 Z M 246.09375 182.8125 C 246.09375 178.929688 242.945312 175.78125 239.0625 175.78125 C 235.179688 175.78125 232.03125 178.929688 232.03125 182.8125 C 232.03125 186.695312 235.179688 189.84375 239.0625 189.84375 C 242.945312 189.84375 246.09375 186.695312 246.09375 182.8125 Z M 246.09375 154.6875 C 246.09375 152.097656 243.996094 150 241.40625 150 L 199.21875 150 C 196.628906 150 194.53125 152.097656 194.53125 154.6875 L 194.53125 164.0625 C 194.53125 166.652344 196.628906 168.75 199.21875 168.75 L 241.40625 168.75 C 243.996094 168.75 246.09375 166.652344 246.09375 164.0625 Z M 246.09375 154.6875 "/>
</g>
</g>
</svg>
